<?xml version="1.0" encoding="utf-8"?>
<!-- Generator: Adobe Illustrator 26.0.1, SVG Export Plug-In . SVG Version: 6.00 Build 0)  -->
<svg version="1.1" id="Layer_1" xmlns="http://www.w3.org/2000/svg" xmlns:xlink="http://www.w3.org/1999/xlink" x="0px" y="0px"
	 viewBox="0 0 447.2 548" style="enable-background:new 0 0 447.2 548;" xml:space="preserve">
<style type="text/css">
	.st0{fill:#362D3B;}
	.st1{fill:#735D68;}
	.st2{fill:#19151C;}
	.st3{fill:none;stroke:#09090B;stroke-width:3;stroke-linecap:round;stroke-linejoin:round;stroke-miterlimit:10;}
	.st4{fill:#FFFFFF;}
	.st5{fill:#D9CECD;}
	.st6{fill:#E1A28C;}
	.st7{fill:#09090B;}
	.st8{fill:#B67167;}
	.st9{fill:none;stroke:#09090B;stroke-width:7;stroke-linecap:round;stroke-linejoin:round;stroke-miterlimit:10;}
	.st10{fill:url(#SVGID_1_);}
	.st11{fill:#C9C0A6;}
	.st12{clip-path:url(#SVGID_00000147220525069990833390000003474538291750238378_);}
	.st13{fill:url(#SVGID_00000119108385683329242570000003346539607798177677_);}
	.st14{opacity:0.5;fill:url(#SVGID_00000160188580051909582650000012569563236647543938_);}
	.st15{fill:#18100D;}
	.st16{opacity:0.5;fill:#FFFFFF;}
	.st17{fill:url(#SVGID_00000092440565849460479420000016675986286767282051_);}
	.st18{clip-path:url(#SVGID_00000122680717768436322290000010089806139459457693_);}
	.st19{fill:url(#SVGID_00000051342168368983629410000004743287402709249942_);}
	.st20{opacity:0.5;fill:url(#SVGID_00000145769993088681061870000015185104633190526645_);}
	.st21{fill:#4D4F5A;}
	.st22{fill:#8F949D;}
	.st23{fill:none;stroke:#09090B;stroke-width:4;stroke-linecap:round;stroke-linejoin:round;stroke-miterlimit:10;}
</style>
<g>
	<g>
		<path class="st0" d="M316.2,450.5c-4.3-8-9.8-11.7-13.9-19.9c-3.6-7.2-11.1-11.8,9.9-58.2c5.1-11.4-23-25-27.9-36.3
			c-5.6-13-11.6-23.2-21.7-29.2c-9.7-5.8-20.6-7-31.2-6.8c-2.6,0.1-5.2,0.2-7.8,0.5c-2.6-0.3-5.2-0.4-7.8-0.5
			c-10.6-0.2-21.4,1-31.2,6.8c-10,6-16.1,16.2-21.7,29.2c-4.9,11.3-33,24.9-27.9,36.3c20.9,46.4,13.4,51,9.9,58.2
			c-4.1,8.2-9.6,11.9-13.9,19.9c-6.8,12.7-11.4,26.4-10.7,42.6c0.8,19.2,7.5,51.5,55.5,43.1c16.1-2.8,32.1-0.7,47.7-1.8
			c15.6,1.1,31.7-1,47.7,1.8c48,8.4,54.7-23.9,55.5-43.1C327.6,476.9,323,463.2,316.2,450.5z"/>
		<path class="st1" d="M128.6,504.9c-0.7-16.2,10.5-34.4,17.3-47.1c4.3-8,9.8-11.7,13.9-19.9c3.6-7.2,11.1-11.8-9.9-58.2
			c-5.1-11.4,23-25,27.9-36.3c5.6-13,11.6-23.2,21.7-29.2c9.7-5.8,20.6-7,31.2-6.8c2.6,0.1,5.2,0.2,7.8,0.5c2.6-0.3,5.2-0.4,7.8-0.5
			c6.7-0.1,13.6,0.3,20.2,2.1c-1.2-0.9-2.5-1.8-3.8-2.6c-9.7-5.8-20.6-7-31.2-6.8c-2.6,0.1-5.2,0.2-7.8,0.5
			c-2.6-0.3-5.2-0.4-7.8-0.5c-10.6-0.2-21.4,1-31.2,6.8c-10,6-16.1,16.2-21.7,29.2c-4.9,11.3-33,24.9-27.9,36.3
			c20.9,46.4,13.4,51,9.9,58.2c-4.1,8.2-9.6,11.9-13.9,19.9c-6.8,12.7-11.4,26.4-10.7,42.6c0.6,14.8,4.8,37.4,28.8,43.1
			C138.1,526.8,129.1,515.9,128.6,504.9z"/>
		<path class="st2" d="M316.2,450.5c-4.3-8-9.8-11.7-13.9-19.9c-3.6-7.2-11.1-11.8,9.9-58.2c5.1-11.4-23-25-27.9-36.3
			c-5.6-13-11.6-23.2-21.7-29.2c-9.7-5.8-20.6-7-31.2-6.8c-2.6,0.1-5.2,0.2-7.8,0.5c-2.6-0.3-5.2-0.4-7.8-0.5
			c-10.6-0.2-21.4,1-31.2,6.8c-10,6-16.1,16.2-21.7,29.2c-4.9,11.3-33,24.9-27.9,36.3c15.1,33.5,15.4,45.2,13,51.9c1.5,1,3,2,4.5,3
			c10.1,3.8,20.8,6,31.5,7.5c11.1,1.6,22.3,2.3,33.5,3.2c5.6,0.4,11.1,0.8,16.7,1.4c5.3,0.5,10.7,1.1,16,2c4.8,0.8,9.6,2.2,14,4.5
			c4.3,2.3,8.1,5.6,10.9,9.6c5.1,7.4,5.3,16.7,2.8,25.1c-2.6,8.7-7.8,16.6-14.2,23.1c-3.6,3.6-7.6,6.8-12,9.4
			c-4.4,2.6-9.2,4.7-14,6.4c-4.9,1.7-10,3.1-15,4.3c-5.6,1.4-11.2,2.7-16.9,3.7c-6,1.1-12.1,2-18.2,2.6c-5.6,0.5-11.3,0.8-16.9,1
			c-8.1,0.3-16.6,0.1-24.4-2.2c-3.7,0.4-7.5,0.7-11.2,1c8.2,6.5,21,9.9,40.6,6.4c16.1-2.8,32.1-0.7,47.7-1.8
			c15.6,1.1,31.7-1,47.7,1.8c48,8.4,54.7-23.9,55.5-43.1C327.6,476.9,323,463.2,316.2,450.5z"/>
		<path class="st3" d="M316.2,450.5c-4.3-8-9.8-11.7-13.9-19.9c-3.6-7.2-11.1-11.8,9.9-58.2c5.1-11.4-23-25-27.9-36.3
			c-5.6-13-11.6-23.2-21.7-29.2c-9.7-5.8-20.6-7-31.2-6.8c-2.6,0.1-5.2,0.2-7.8,0.5c-2.6-0.3-5.2-0.4-7.8-0.5
			c-10.6-0.2-21.4,1-31.2,6.8c-10,6-16.1,16.2-21.7,29.2c-4.9,11.3-33,24.9-27.9,36.3c20.9,46.4,13.4,51,9.9,58.2
			c-4.1,8.2-9.6,11.9-13.9,19.9c-6.8,12.7-11.4,26.4-10.7,42.6c0.8,19.2,7.5,51.5,55.5,43.1c16.1-2.8,32.1-0.7,47.7-1.8
			c15.6,1.1,31.7-1,47.7,1.8c48,8.4,54.7-23.9,55.5-43.1C327.6,476.9,323,463.2,316.2,450.5z"/>
		<g>
			<path class="st4" d="M167.8,435.9c8.3,5.9,35.6,24.6,36.1,34.7c0.4,8.2,1.9,16.6,1.5,24.7c-0.6,10.7-1.6,21.3-2.6,31.9
				c-0.1,1.5-0.3,3-0.3,4.5c16.4,3.3,33.2,3.1,50.2,3c0.7-4,0.7-8.2,0.2-12.2c-0.6-4.6-2-9.1-2.8-13.7c-0.4-2.3-0.6-4.7-0.3-7.1
				c0.2-2.1,1.1-4.2,1.8-6.2c0.6-1.7,1.3-3.6,0.9-5.4c-0.5-2-2.3-3.4-3.9-4.6c-2.7-2-5.7-3.7-7.9-6.3c-2.5-2.9-4.6-4-4.1-7.8
				c0.5-4.6,3.9-11.6,6.6-15.3c5.4-7.1,12.8-11.6,20.9-15.2c8.1-3.6,16.5-6.4,24.1-10.9c7.7-4.6,14.8-9.9,21.4-16
				c13-12.1,23.4-26.7,31.2-42.7c1.6-3.3,3-6.6,4.4-9.9c-9.7-8.5-30.1-17.5-34.8-25.4c-7.8-13-16.3-23.2-30.4-29.2
				c-13.6-5.8-28.8-7-43.6-6.8c-13.6,0.2-27.4,1.6-40.2,6.7c-16.7,6.6-30.8,19.4-41.1,34.6c-10.2,15.3,5.2,48.3-10.9,57.3
				C130.6,409.5,155,426.8,167.8,435.9z"/>
		</g>
		<g>
			<path class="st5" d="M310.3,336.2c-7.8-13-16.3-23.2-30.4-29.2c-13.6-5.8-28.8-7-43.6-6.8c-13.6,0.2-27.4,1.6-40.2,6.7
				c-16.7,6.6-30.8,19.4-41.1,34.6c-10.2,15.3,5.2,48.3-10.9,57.3c-13.1,8.5-0.5,22.2,14.1,31.1c0.2,0.1,0.4,0.2,0.6,0.2
				c3.4,1.3,6.8,2.7,10.2,3.8c4.1,1.4,8.2,2.5,12.4,3.6c6.5,1.7,13,3.1,19.4,5c4.9,1.5,9.7,3.3,14.1,5.9c4.1,2.4,7.9,5.6,10,9.9
				c2.3,4.8,1.8,10.4-0.3,15.2c-1.2,2.8-3.3,5-6,6.4c-2.8,1.4-6.1,1.7-9.2,1.8c-1.6,0.1-3.1,0-4.7-0.1c0.4,4.6,0.8,9.1,0.6,13.6
				c-0.6,10.7-1.6,21.3-2.6,31.9c-0.1,1.5-0.3,3-0.3,4.5c16.4,3.3,33.2,3.1,50.2,3c0.7-4,0.7-8.2,0.2-12.2c-0.6-4.6-2-9.1-2.8-13.7
				c-0.4-2.3-0.6-4.7-0.3-7.1c0.2-2.1,1.1-4.2,1.8-6.2c0.6-1.7,1.3-3.6,0.9-5.4c-0.5-2-2.3-3.4-3.9-4.6c-2.7-2-5.7-3.7-7.9-6.3
				c-2.5-2.9-4.6-4-4.1-7.8c0.5-4.6,3.9-11.6,6.6-15.3c5.4-7.1,12.8-11.6,20.9-15.2c8.1-3.6,16.5-6.4,24.1-10.9
				c7.7-4.6,14.8-9.9,21.4-16c13-12.1,23.4-26.7,31.2-42.7c1.6-3.3,3-6.6,4.4-9.9C335.5,353,315.1,344,310.3,336.2z"/>
		</g>
		<g>
			<g>
				<path class="st0" d="M258.3,468.9c0,0-14.9,0.9-8.2,17.1c6.8,16.2,23.1,19.2,24.6,22.4c1.5,3.3,7.3,18.1,7.3,18.1
					s-11,1.5-8.2,11.7c2.8,10.2,12.4,5.1,12.4,5.1s2.7,2,5.9,2c3.1,0.1,4.3-1.1,4.3-1.1s2.2,2.6,7.4,2.2c5.2-0.5,11.7-2.8,14.2-8.6
					s2.1-31.3,0.5-44.5"/>
				<path class="st2" d="M318.4,493.3L279,471.6c0,2.2,0.1,4.4,0.2,6.6c1,1.1,2,2.3,3,3.5c1.5,1.9,2.8,3.9,4,5.9
					c4.8,8.2,7.1,17.9,5.4,27.4c-0.8,4.5-2.6,8.9-5.3,12.7c-2.7,3.9-6.3,7.1-10,9.9c-0.7,0.5-1.4,1-2.1,1.5
					c3.2,8.9,12.1,4.1,12.1,4.1s2.7,2,5.9,2c3.1,0.1,4.3-1.1,4.3-1.1s2.2,2.6,7.4,2.2s11.7-2.8,14.2-8.6
					C320.5,532,320,506.5,318.4,493.3z"/>
				<path class="st4" d="M315.7,515.3c-3.9,0.5-7.7-0.4-11.3-1.6c-3.9-1.3-7.8-2.9-12-3c-3.6-0.1-7.3,1-10.1,3.2
					c-1.4,1.1-2.6,2.5-3.7,3.9c1.8,4.5,3.5,8.7,3.5,8.7s-11,1.5-8.2,11.7c2.8,10.2,12.4,5.1,12.4,5.1s2.7,2,5.9,2
					c3.1,0.1,4.3-1.1,4.3-1.1s2.2,2.6,7.4,2.2c5.2-0.5,11.7-2.8,14.2-8.6c1.5-3.4,1.9-13.4,1.7-23.7
					C318.5,514.7,317.1,515.1,315.7,515.3z"/>
				<path class="st3" d="M250.1,486c6.8,16.2,23.1,19.2,24.6,22.4c1.5,3.3,7.3,18.1,7.3,18.1s-11,1.5-8.2,11.7
					c2.8,10.2,12.4,5.1,12.4,5.1s2.7,2,5.9,2c3.1,0.1,4.3-1.1,4.3-1.1s2.2,2.6,7.4,2.2c5.2-0.5,11.7-2.8,14.2-8.6s2.1-31.3,0.5-44.5
					"/>
				<path class="st3" d="M287.4,544.1c-1.9-1.4-2.4-2.5-2.7-3.5c-0.5-1.5-0.2-3.4,0.4-4.9c0.6-1.5,1.7-2.8,3-3.8
					c0.6-0.5,1.3-0.9,1.9-1.5c0.6-0.6,1-1.3,1-2.1"/>
				<path class="st3" d="M296.9,545.1c-2-2.7-2.4-6.5-1-9.5c1.5-3,4.8-5,8.1-4.9c0.8,0,1.6,0.2,2.2,0.8"/>
			</g>
			<g>
				<path class="st0" d="M193.6,457.7c0,0,10.3,12.1,3.5,28.3c-6.8,16.2-23.1,19.2-24.6,22.4c-1.5,3.3-7.3,18.1-7.3,18.1
					s11,1.5,8.2,11.7c-2.8,10.2-12.4,5.1-12.4,5.1s-2.7,2-5.9,2c-3.1,0.1-4.3-1.1-4.3-1.1s-2.2,2.6-7.4,2.2
					c-5.2-0.5-11.7-2.8-14.2-8.6c-2.5-5.8-2.1-31.3-0.5-44.5"/>
				<path class="st4" d="M131.6,515.3c3.9,0.5,7.7-0.4,11.3-1.6c3.9-1.3,7.8-2.9,12-3c3.6-0.1,7.3,1,10.1,3.2
					c1.4,1.1,2.6,2.5,3.7,3.9c-1.8,4.5-3.5,8.7-3.5,8.7s11,1.5,8.2,11.7c-2.8,10.2-12.4,5.1-12.4,5.1s-2.7,2-5.9,2
					c-3.1,0.1-4.3-1.1-4.3-1.1s-2.2,2.6-7.4,2.2c-5.2-0.5-11.7-2.8-14.2-8.6c-1.5-3.4-1.9-13.4-1.7-23.7
					C128.8,514.7,130.1,515.1,131.6,515.3z"/>
				<path class="st3" d="M197.1,486c-6.8,16.2-23.1,19.2-24.6,22.4c-1.5,3.3-7.3,18.1-7.3,18.1s11,1.5,8.2,11.7
					c-2.8,10.2-12.4,5.1-12.4,5.1s-2.7,2-5.9,2c-3.1,0.1-4.3-1.1-4.3-1.1s-2.2,2.6-7.4,2.2c-5.2-0.5-11.7-2.8-14.2-8.6
					c-2.5-5.8-2.1-31.3-0.5-44.5"/>
				<path class="st3" d="M159.8,544.1c1.9-1.4,2.4-2.5,2.7-3.5c0.5-1.5,0.2-3.4-0.4-4.9c-0.6-1.5-1.7-2.8-3-3.8
					c-0.6-0.5-1.3-0.9-1.9-1.5c-0.6-0.6-1-1.3-1-2.1"/>
				<path class="st3" d="M150.4,545.1c2-2.7,2.4-6.5,1-9.5c-1.5-3-4.8-5-8.1-4.9c-0.8,0-1.6,0.2-2.2,0.8"/>
			</g>
		</g>
		<g>
			<g>
				<path class="st0" d="M239.4,470v55.6c0,0-13,0.9-12.2,11.5s16.7,5.3,16.7,5.3s2.6,3.6,7.6,3.6s6.7-1.9,6.7-1.9s3.6,2,9.2,1.9
					c5.6-0.1,6.8-1.6,12.4-10.2s27.7-45.1,28.3-48c0.6-2.9-6.4-12.6-5.2-16.5s8.1-13.2,5.2-19.2"/>
				<path class="st2" d="M302.9,471.3c1.2-3.9,8.1-13.2,5.2-19.2l-30.6,8c1.8,1.6,4.7,4.7,5.7,6.9c1.4,3.2,2.6,7.8,2.8,11.2
					c0.4,8.3-3.4,14.6-6,22.5c-2.7,8-7.3,15.6-14,21c-3.5,2.9-7.6,5-11.8,6.6c-3.8,1.4-7.8,2.3-11.7,3.2c-3.3,0.8-6.6,1.5-10,1.8
					c-1.5,0.1-3.3,0.1-4.9-0.3c-0.4,1.2-0.6,2.5-0.5,4.1c0.8,10.5,16.7,5.3,16.7,5.3s2.6,3.6,7.6,3.6c5,0,6.7-1.9,6.7-1.9
					s3.6,2,9.2,1.9c5.6-0.1,6.8-1.6,12.4-10.2c5.6-8.7,27.7-45.1,28.3-48C308.7,484.9,301.7,475.2,302.9,471.3z"/>
				<path class="st4" d="M289.4,520.3c-1.5-1.3-3.5-1.7-5.4-1.9c-2-0.2-4.1-0.1-6-0.5c-2.2-0.4,2.9-13-7.6-17.5
					c-2-0.9-6.3,0.6-9.2,1.7c-2.1,0.8-11.6,4.9-14.6,7.2c-2.3,1.7-5,3.7-7.1,5.6v10.8c0,0-13,0.9-12.2,11.5s16.7,5.3,16.7,5.3
					s2.6,3.6,7.6,3.6c5,0,6.7-1.9,6.7-1.9s3.6,2,9.2,1.9c5.6-0.1,6.8-1.6,12.4-10.2C281.6,533,285.3,527,289.4,520.3
					C289.4,520.3,289.4,520.3,289.4,520.3z"/>
				<path class="st3" d="M239.4,470v55.6c0,0-13,0.9-12.2,11.5s16.7,5.3,16.7,5.3s2.6,3.6,7.6,3.6s6.7-1.9,6.7-1.9s3.6,2,9.2,1.9
					c5.6-0.1,6.8-1.6,12.4-10.2s27.7-45.1,28.3-48c0.6-2.9-6.4-12.6-5.2-16.5s8.1-13.2,5.2-19.2"/>
				<path class="st3" d="M247,525.6c0.9,1.3,0.2,3.1-0.9,4.2s-2.5,1.9-3.5,3.1c-1.1,1.4-1.4,3.3-1.1,5c0.3,1.7,1.6,4,2.9,5.1"/>
				<path class="st3" d="M259.6,526.5c1.1,1.2,1.1,3.1,0.1,4.3c-0.8,1-2.1,1.4-3.1,2.2c-1.7,1.5-2.2,4.1-1.5,6.2s2.3,4.3,4.3,5.4"/>
			</g>
			<g>
				<path class="st0" d="M207.8,470v55.6c0,0,13,0.9,12.2,11.5c-0.8,10.5-16.7,5.3-16.7,5.3s-2.6,3.6-7.6,3.6c-5,0-6.7-1.9-6.7-1.9
					s-3.6,2-9.2,1.9c-5.6-0.1-6.8-1.6-12.4-10.2s-27.7-45.1-28.3-48c-0.6-2.9,6.4-12.6,5.2-16.5s-8.1-13.2-5.2-19.2"/>
				<g>
					<path class="st1" d="M176.7,534.6c-5.6-8.7-27.7-45.1-28.3-48c-0.6-2.9,6.4-12.6,5.2-16.5c-1-3.2-6.1-14-4.5-17.2l-10-0.8
						c-2.9,6,4,15.3,5.2,19.2c1.2,3.9-5.8,13.7-5.2,16.5c0.6,2.9,22.8,39.3,28.3,48c5.6,8.7,6.8,10.1,12.4,10.2
						c3.7,0.1,6.5-0.7,8-1.3C183.3,544.4,181.9,542.5,176.7,534.6z"/>
					<path class="st1" d="M212.6,541.2c0,0-1,1.4-3,2.5c2.7,0.2,5.7,0,7.8-1.4C214.7,541.9,212.6,541.2,212.6,541.2z"/>
					<path class="st1" d="M198.4,542.9c0,0-3.3,1.8-8.4,1.9c1,0.5,2.8,1.3,5.9,1.3c2.4,0,4.2-0.8,5.5-1.7
						C199.2,543.8,198.4,542.9,198.4,542.9z"/>
				</g>
				<path class="st4" d="M157.9,520.3c1.5-1.3,3.5-1.7,5.4-1.9c2-0.2,4.1-0.1,6-0.5c2.2-0.4-2.9-13,7.6-17.5c2-0.9,6.3,0.6,9.2,1.7
					c2.1,0.8,11.6,4.9,14.6,7.2c2.3,1.7,5,3.7,7.1,5.6v10.8c0,0,13,0.9,12.2,11.5c-0.8,10.5-16.7,5.3-16.7,5.3s-2.6,3.6-7.6,3.6
					c-5,0-6.7-1.9-6.7-1.9s-3.6,2-9.2,1.9c-5.6-0.1-6.8-1.6-12.4-10.2C165.6,533,162,527,157.9,520.3
					C157.9,520.3,157.9,520.3,157.9,520.3z"/>
				<path class="st3" d="M207.8,470v55.6c0,0,13,0.9,12.2,11.5c-0.8,10.5-16.7,5.3-16.7,5.3s-2.6,3.6-7.6,3.6c-5,0-6.7-1.9-6.7-1.9
					s-3.6,2-9.2,1.9c-5.6-0.1-6.8-1.6-12.4-10.2s-27.7-45.1-28.3-48c-0.6-2.9,6.4-12.6,5.2-16.5s-8.1-13.2-5.2-19.2"/>
				<path class="st3" d="M200.2,525.6c-0.9,1.3-0.2,3.1,0.9,4.2c1.1,1.1,2.5,1.9,3.5,3.1c1.1,1.4,1.4,3.3,1.1,5
					c-0.3,1.7-1.6,4-2.9,5.1"/>
				<path class="st3" d="M187.7,526.5c-1.1,1.2-1.1,3.1-0.1,4.3c0.8,1,2.1,1.4,3.1,2.2c1.7,1.5,2.2,4.1,1.5,6.2
					c-0.7,2.2-2.3,4.3-4.3,5.4"/>
			</g>
		</g>
		<g>
			<g>
				<path class="st0" d="M394.3,273.6c0,94.3-76.4,162.9-170.7,162.9S52.9,367.9,52.9,273.6s76.4-170.7,170.7-170.7
					C317.9,102.9,394.3,179.4,394.3,273.6z"/>
				<g>
					<path class="st4" d="M223.6,102.9c-86.2,0-157.5,63.9-169,147c2.1-1.1,4.1-2.3,6-3.4c8.5-5.1,16.3-11.1,23.6-17.8
						c7.3-6.7,13.7-14.2,20.2-21.7c7.3-8.4,14.5-16.8,21.5-25.5c7.1-8.9,13.9-18,21.2-26.8c8.3-9.9,17.1-19.7,27.2-27.8
						c13.3-10.6,22.4-12.6,27.2-13.1c2.3-0.2,4.5-0.2,6.8-0.1c2.2,0.1,4.5,0.3,6.7,0.9c3.5,1,6.7,2.8,8.8,5.9
						c2.2,3.2,2.9,7.2,2.9,11c-0.1,4.7-1.2,9.2-3.3,13.4c-2,4.2-4.9,7.9-8,11.3c-6.4,7-14.1,12.6-20.9,19.1
						c-1.7,1.6-3.4,3.3-4.9,5.2c-1.7,2.1-3.1,4.5-4.3,6.9c-1.2,2.6-2.1,5.4-2.6,8.2c0.3,1.7,0.7,3.3,1.1,5c2.3,7.9,7,14.8,11.2,21.9
						c4,6.7,7.5,13.6,9.3,21.2c1.7,7,2,14.3,2.8,21.4c0.8,7,2,14.4,5.9,20.3c3.3,4.9,8.5,9.3,14.2,11c2.7,0.8,5.6,1,8.2-0.3
						c2.7-1.4,4.3-4,5.1-6.9c1.4-5.8-0.3-12.2-2.2-17.7c-2.1-6.1-4.7-11.9-7-17.9c-2.2-5.8-3.2-11.8-3.6-18
						c-0.5-8-0.1-16.1,1.4-23.9c1.4-7.1,3.7-14.1,8.2-19.9c4.2-5.5,9.6-9.9,14.3-15c2.2-2.4,4.4-5,6-7.8c1.6-3,2.5-6.3,2.7-9.6
						c0.4-5.8-1-11.4-0.8-17.2c0.2-6,3-10.8,7.7-14.4c2.7-2.1,5.5-4.1,8.6-5.7c2.9-1.5,5.9-2.7,8.8-4.1c1.4-0.7,2.8-1.3,4.1-2.1
						C268.8,107.6,246.7,102.9,223.6,102.9z"/>
				</g>
				<g>
					<path class="st5" d="M151.4,148.9c0.2-1,0.6-2,1.1-2.9c1.1-1.9,2.6-3.5,4-5.3c1.6-2,3.1-4.1,4.6-6.2c1.5-2.2,3-4.4,4.6-6.5
						c1.5-2,3-4.1,4.9-5.8c3.3-3.1,7.3-5.4,11.5-7.3c4.4-2,8.9-3.9,13.5-5.5c8.1-2.9,16.4-4.9,24.8-6.5
						C135.6,104.6,66,168,54.6,249.9c2.1-1.1,4.1-2.3,6-3.4c8.5-5.1,16.3-11.1,23.6-17.8c7.3-6.7,13.7-14.2,20.2-21.7
						c7.3-8.4,14.5-16.8,21.5-25.5c7.1-8.9,13.9-18,21.2-26.8c1.5-1.8,3-3.5,4.5-5.3C151.4,149.3,151.3,149.2,151.4,148.9z"/>
				</g>
				<g>
					<path class="st5" d="M238.4,271.5c-2.1-6.1-4.7-11.9-7-17.9c-2.2-5.8-3.2-11.8-3.6-18c-0.5-8-0.1-16.1,1.4-23.9
						c0.5-2.5,1.1-5,1.9-7.5c-2.9-0.3-5.8-0.7-8.6-1.4c-3.7-0.9-7.6-2.2-10.5-4.9c-2.8-2.5-4.1-6.1-3.7-9.8
						c0.3-4.1,2.7-7.5,5.3-10.4c2.2-2.5,5.3-4.8,6.7-7.9c1.7-3.5-1.5-6.3-4.2-8c-1.3-0.8-2.7-1.7-4.1-2.3
						c-5.7,5.5-11.9,10.3-17.6,15.8c-1.7,1.6-3.4,3.3-4.9,5.2c-1.7,2.1-3.1,4.5-4.3,6.9c-1.2,2.6-2.1,5.4-2.6,8.2
						c0.3,1.7,0.7,3.3,1.1,5c2.3,7.9,7,14.8,11.2,21.9c4,6.7,7.5,13.6,9.3,21.2c1.7,7,2,14.3,2.8,21.4c0.8,7,2,14.4,5.9,20.3
						c3.3,4.9,8.5,9.3,14.2,11c2.7,0.8,5.6,1,8.2-0.3c2.7-1.4,4.3-4,5.1-6.9C242,283.4,240.2,277,238.4,271.5z"/>
				</g>
				<path class="st2" d="M334.3,143.7c17.6,26.8,27.8,58.9,27.8,93.3c0,94.3-76.4,170.7-170.7,170.7c-42.2,0-80.8-15.3-110.6-40.7
					c30.5,46.6,83.1,69.6,142.9,69.6c94.3,0,170.7-68.7,170.7-162.9C394.3,221.6,371,175,334.3,143.7z"/>
				<path class="st3" d="M394.3,273.6c0,94.3-76.4,162.9-170.7,162.9S52.9,367.9,52.9,273.6s76.4-170.7,170.7-170.7
					C317.9,102.9,394.3,179.4,394.3,273.6z"/>
				<g>
					<g>
						<path class="st0" d="M284.3,123.3c0,0,14.7-2.6,19.5-7.5c4.9-4.9,21.6-18.7,21.6-18.7s2.3-13.5,23.6-34.8s59.2-61.5,82.5-60.9
							s12.1,64.7,8.6,73s-4.3,16.1-4.6,25.6c-0.3,9.5-2.3,22.1-2.3,22.1s4.9,30.2-1.7,45.1c-6.6,14.9-25.9,30.5-25.9,30.5
							s-0.6,8.9-3.4,12.9c-2.9,4-5.7,4.9-7.5,9.8c-1.7,4.9,2.3,14.1,0,20.7c-2.3,6.6-8,13.2-8.6,19"/>
						<path class="st2" d="M431.4,1.5c-0.2,0-0.4,0-0.6,0c1.2,1.4,2,3.1,2.1,5.3c0.2,4.3-1.1,8.6-2.3,12.6
							c-1.1,3.7-2.2,7.3-4.7,10.2c-2.4,2.7-5.6,4.6-8.7,6.5c-17.1,10.3-34.2,21-48.4,35.2c-7.1,7.1-13.4,15.1-18,24.1
							c-2.6,5-4.3,10.4-5,16c-0.6,4.9,0,9.9-1.1,14.7c-0.9,4.2-3.3,7.6-5,11.5c-1.8,4.2-1.7,8.8-0.6,13.2
							c2.2,9.2,7.5,17.3,11.4,25.8c6.7,14.5,8.4,30.5,8,46.4l27.5,36.9c0.6-5.7,6.3-12.4,8.6-19c2.3-6.6-1.7-15.8,0-20.7
							c1.7-4.9,4.6-5.7,7.5-9.8c2.9-4,3.4-12.9,3.4-12.9s19.3-15.5,25.9-30.5c6.6-14.9,1.7-45.1,1.7-45.1s2-12.6,2.3-22.1
							c0.3-9.5,1.1-17.2,4.6-25.6C443.5,66.2,454.7,2.1,431.4,1.5z"/>
						<path class="st1" d="M301,124.9c3.8,0.3,7.6,0.2,11.3-0.7c3.2-0.8,6-2.3,8.6-4.3c5.7-4.3,10.5-10,14.6-15.7
							c1.9-2.6,3.7-5.3,5.2-8.2c2-3.8,3.5-7.8,5-11.8c1.4-3.8,2.8-7.7,4.6-11.4c1.8-3.9,4-7.6,6.3-11.2c2.3-3.6,4.8-7,7.4-10.4
							c2.6-3.4,5.4-6.6,8.1-10c2-2.5,3.9-5,5.9-7.4c-11,10.1-21.2,20.7-29.1,28.6c-21.3,21.3-23.6,34.8-23.6,34.8
							s-16.7,13.8-21.6,18.7c-3.6,3.6-12.3,5.9-16.8,6.9C291.6,123.7,296.3,124.6,301,124.9z"/>
						<path class="st3" d="M284.3,123.3c0,0,14.7-2.6,19.5-7.5c4.9-4.9,21.6-18.7,21.6-18.7s2.3-13.5,23.6-34.8s59.2-61.5,82.5-60.9
							s12.1,64.7,8.6,73s-4.3,16.1-4.6,25.6c-0.3,9.5-2.3,22.1-2.3,22.1s4.9,30.2-1.7,45.1c-6.6,14.9-25.9,30.5-25.9,30.5
							s-0.6,8.9-3.4,12.9c-2.9,4-5.7,4.9-7.5,9.8c-1.7,4.9,2.3,14.1,0,20.7c-2.3,6.6-8,13.2-8.6,19"/>
						<g>
							<path class="st6" d="M377.4,200.4c-0.3,0-0.6-0.1-0.8-0.3c-0.3-0.2-0.6-0.6-0.6-1c0-0.1-2.2-13.3-11.3-26.6
								c-9.1-13.4-16.9-19.4-17-19.5c-0.4-0.3-0.6-0.7-0.6-1.2v-7.8c0-0.4,0.2-0.8,0.5-1.1c0.3-0.2,0.6-0.4,1-0.4c0.1,0,0.1,0,0.2,0
								c0,0,0.2,0,0.5,0c2.2,0,7.6-0.8,10.1-8.2c3-8.7-6.3-13.5-6.7-13.7c-0.5-0.2-0.8-0.7-0.8-1.2c0-0.1-0.5-5.7-1.2-15.6
								c-0.7-10.5,0.9-13.5,8.6-26c3.8-6.2,14.3-20.3,26.4-34.3c10-11.6,23.9-26.4,32.8-30.6c4.2-2,7.7-2.9,10.8-2.9
								c3.3,0,6,1.1,8.1,3.3c4.1,4.2,5.9,12.4,5.6,25.2c-0.4,17.7-6.6,32.5-9.9,40.4c-1.1,2.7-2.1,5.1-2.2,5.9
								c-0.1,1.1,0.6,6.5,1.4,12.8c1.9,15,4.8,37.7,4,51c-1.3,20.1-9.3,28.8-23.6,37.9c-14.2,9-34.1,13.5-35,13.7
								C377.6,200.4,377.5,200.4,377.4,200.4z"/>
							<path class="st7" d="M429.2,11.7c8.7,0,12.7,8.7,12.3,26.9c-0.6,24.1-11.8,42.2-12.1,46.3s6.6,44.5,5.4,63.8
								c-1.2,19.3-8.8,27.8-22.9,36.8s-34.5,13.5-34.5,13.5s-2.2-13.4-11.5-27.2c-9.4-13.8-17.3-19.8-17.3-19.8l0-7.8
								c0,0,0.2,0,0.6,0c2.1,0,8.7-0.7,11.6-9.2c3.4-10.1-7.4-15.5-7.4-15.5s-0.5-5.6-1.2-15.5s0.6-12.5,8.4-25.1
								c7.8-12.6,42.8-56.9,58.6-64.4C422.9,12.6,426.3,11.7,429.2,11.7 M429.2,8.7L429.2,8.7c-3.3,0-7.1,1-11.4,3.1
								c-16.5,7.8-51.9,52.4-59.9,65.5c-7.9,12.8-9.5,15.9-8.8,26.9c0.6,9.8,1.2,15.6,1.2,15.6c0.1,1,0.7,1.9,1.7,2.4
								c0.3,0.2,8.5,4.4,5.9,11.9c-2.2,6.5-6.8,7.2-8.7,7.2c-0.2,0-0.3,0-0.3,0c-0.1,0-0.2,0-0.3,0c-0.7,0-1.4,0.3-2,0.8
								c-0.6,0.6-1,1.4-1,2.2l0,7.8c0,0.9,0.4,1.8,1.2,2.4c0.1,0.1,7.7,6,16.7,19.1c8.9,13,11,25.9,11.1,26c0.1,0.8,0.6,1.5,1.3,2
								c0.5,0.3,1.1,0.5,1.7,0.5c0.2,0,0.4,0,0.6-0.1c0.9-0.2,21-4.7,35.4-13.9c14.4-9.2,23-18.5,24.3-39.1
								c0.8-13.4-2.1-36.2-4-51.3c-0.7-5.6-1.5-11.4-1.4-12.5c0.1-0.7,1.1-3.2,2.1-5.5c3.3-8,9.6-22.9,10-40.9
								c0.3-13.3-1.6-21.7-6.1-26.2C436,9.9,432.9,8.7,429.2,8.7L429.2,8.7z"/>
						</g>
						<g>
							<path class="st8" d="M377.4,198.9c0,0,3.1-0.7,7.6-2c1.1-0.7,2.3-1.4,3.4-2.1c5.6-3.8,10.4-8.5,14.1-14.1
								c2.1-3.2,3.9-6.6,5.3-10.1c1.8-4.3,3.2-8.8,3.5-13.4c0.7-9.5-2.5-18.7-5.9-27.4c-1.8-4.7-3.9-9.3-5.2-14.1
								c-1.3-4.7-1.7-9.7-1.3-14.5c0.8-9.9,4.5-19.2,8-28.4c1.3-3.6,2.4-7.4,3.5-11.1c12.2-40.6-43.8,7.1-50,17.2
								c-7.8,12.6-9,15.2-8.4,25.1c0.6,9.9,1.2,15.5,1.2,15.5s10.9,5.4,7.4,15.5c-3.4,10.1-12.2,9.2-12.2,9.2l0,7.8
								c0,0,8,6,17.3,19.8C375.2,185.5,377.4,198.9,377.4,198.9z"/>
						</g>
					</g>
					<g>
						<path class="st0" d="M163,123.3c0,0-14.7-2.6-19.5-7.5c-4.9-4.9-21.6-18.7-21.6-18.7s-2.3-13.5-23.6-34.8S39.1,0.9,15.9,1.5
							s-12.1,64.7-8.6,73s4.3,16.1,4.6,25.6c0.3,9.5,2.3,22.1,2.3,22.1s-4.9,30.2,1.7,45.1s25.9,30.5,25.9,30.5s0.6,8.9,3.4,12.9
							s5.7,4.9,7.5,9.8c1.7,4.9-2.3,14.1,0,20.7s8,13.2,8.6,19"/>
						<g>
							<path class="st5" d="M152.2,120.6c-1,0.9-5.2,0.3-23.3,22.8c-3.8,4.7-10.6,6-15.8,9.1c-23.2,13.8-28.7,32.6-33,39.7
								c-2.9,4.9-6.2,9.7-9.5,14.3c-3.1,4.4-6.3,8.7-10.3,12.3c-1.8,1.7-3.8,3.2-6,4.3c-0.4,0.2-0.9,0.5-1.4,0.7
								c-0.1,5.1-2.3,12-0.4,17.3c2.3,6.6,8,13.2,8.6,19l103.1-136.5C164.3,123.6,158.3,123,152.2,120.6z"/>
						</g>
						<path class="st3" d="M163,123.3c0,0-14.7-2.6-19.5-7.5c-4.9-4.9-21.6-18.7-21.6-18.7s-2.3-13.5-23.6-34.8S39.1,0.9,15.9,1.5
							s-12.1,64.7-8.6,73s4.3,16.1,4.6,25.6c0.3,9.5,2.3,22.1,2.3,22.1s-4.9,30.2,1.7,45.1s25.9,30.5,25.9,30.5s0.6,8.9,3.4,12.9
							s5.7,4.9,7.5,9.8c1.7,4.9-2.3,14.1,0,20.7s8,13.2,8.6,19"/>
						<g>
							<path class="st6" d="M69.9,200.4c-0.1,0-0.2,0-0.3,0c-0.8-0.2-20.7-4.7-35-13.7c-14.4-9.1-22.4-17.9-23.6-37.9
								c-0.8-13.3,2.1-36,4-51c0.8-6.3,1.5-11.7,1.4-12.8c-0.1-0.9-1-3.2-2.2-5.9c-3.3-7.9-9.5-22.7-9.9-40.4
								C4,25.9,5.8,17.7,9.9,13.5c2.1-2.2,4.9-3.3,8.1-3.3c3.1,0,6.6,1,10.8,2.9c9,4.2,22.8,19,32.8,30.6
								c12.1,14,22.7,28.2,26.4,34.3c7.7,12.5,9.3,15.5,8.6,26c-0.6,9.8-1.2,15.5-1.2,15.6c0,0.5-0.4,1-0.8,1.2
								c-0.4,0.2-9.7,4.9-6.7,13.7c2.5,7.4,7.9,8.2,10.1,8.2c0.3,0,0.4,0,0.5,0c0,0,0.1,0,0.1,0c0.4,0,0.7,0.1,1,0.4
								c0.3,0.3,0.5,0.7,0.5,1.1v7.8c0,0.5-0.2,0.9-0.6,1.2c-0.1,0.1-7.9,6.1-17,19.5c-9.1,13.4-11.3,26.5-11.3,26.6
								c-0.1,0.4-0.3,0.8-0.6,1C70.5,200.3,70.2,200.4,69.9,200.4z"/>
							<path class="st7" d="M18.1,11.7c2.9,0,6.2,0.9,10.1,2.8C44,21.9,79.1,66.2,86.8,78.8c7.8,12.6,9,15.2,8.4,25.1
								c-0.6,9.9-1.2,15.5-1.2,15.5s-10.9,5.4-7.4,15.5c2.9,8.5,9.5,9.2,11.6,9.2c0.4,0,0.6,0,0.6,0l0,7.8c0,0-8,6-17.3,19.8
								c-9.4,13.8-11.5,27.2-11.5,27.2s-20.3-4.5-34.5-13.5c-14.2-9-21.7-17.5-22.9-36.8c-1.2-19.3,5.7-59.8,5.4-63.8
								S6.4,62.7,5.8,38.6C5.4,20.4,9.3,11.7,18.1,11.7 M18.1,8.7c-3.7,0-6.8,1.3-9.2,3.7C4.4,17,2.5,25.3,2.8,38.7
								c0.4,18,6.7,32.9,10,40.9c0.9,2.2,2,4.8,2.1,5.5c0.1,1.1-0.7,6.9-1.4,12.5c-1.9,15.1-4.8,37.9-4,51.3
								c1.3,20.6,9.9,29.9,24.3,39.1c14.4,9.2,34.6,13.7,35.4,13.9c0.2,0,0.4,0.1,0.6,0.1c0.6,0,1.2-0.2,1.7-0.5
								c0.7-0.5,1.1-1.2,1.3-2c0-0.1,2.2-13,11-26c8.9-13.1,16.6-19.1,16.7-19.1c0.7-0.6,1.2-1.5,1.2-2.4l0-7.8c0-0.9-0.4-1.7-1-2.2
								c-0.6-0.5-1.3-0.8-2-0.8c-0.1,0-0.2,0-0.3,0c0,0-0.1,0-0.3,0c-1.9,0-6.5-0.7-8.7-7.2c-2.5-7.5,5.6-11.7,5.9-11.9
								c0.9-0.5,1.5-1.4,1.6-2.4c0-0.1,0.6-5.8,1.2-15.6c0.7-10.9-0.9-14-8.8-26.9c-8-13.1-43.4-57.7-59.9-65.5
								C25.1,9.7,21.4,8.7,18.1,8.7L18.1,8.7z"/>
						</g>
						<g>
							<path class="st8" d="M69.9,198.9c0,0-3.1-0.7-7.6-2c-1.1-0.7-2.3-1.4-3.4-2.1c-5.6-3.8-10.4-8.5-14.1-14.1
								c-2.1-3.2-3.9-6.6-5.3-10.1c-1.8-4.3-3.2-8.8-3.5-13.4c-0.7-9.5,2.5-18.7,5.9-27.4c1.8-4.7,3.9-9.3,5.2-14.1
								c1.3-4.7,1.7-9.7,1.3-14.5c-0.8-9.9-4.5-19.2-8-28.4c-1.3-3.6-2.4-7.4-3.5-11.1c-12.2-40.6,43.8,7.1,50,17.2
								c7.8,12.6,9,15.2,8.4,25.1c-0.6,9.9-1.2,15.5-1.2,15.5s-10.9,5.4-7.4,15.5c3.4,10.1,12.2,9.2,12.2,9.2l0,7.8
								c0,0-8,6-17.3,19.8C72,185.5,69.9,198.9,69.9,198.9z"/>
						</g>
					</g>
				</g>
				<g>
					<g>
						<path class="st9" d="M376.8,210.1c-11.4-23.4-35.7-39.6-63.7-39.6"/>
						<g>
							
								<linearGradient id="SVGID_1_" gradientUnits="userSpaceOnUse" x1="-471.9825" y1="839.2095" x2="-386.8199" y2="924.3722" gradientTransform="matrix(1 0 0 1 742.4957 -632.2931)">
								<stop  offset="0.1488" style="stop-color:#FFF5D3"/>
								<stop  offset="0.7925" style="stop-color:#AF99AA"/>
							</linearGradient>
							<path class="st10" d="M313.1,309.2c-16.2,0-31.4-6.2-42.9-17.5c-11.5-11.3-17.8-26.3-17.8-42.3c0-16,6.3-31,17.8-42.3
								c11.5-11.3,26.7-17.5,42.9-17.5c16.2,0,31.4,6.2,42.9,17.5c11.5,11.3,17.8,26.3,17.8,42.3c0,16-6.3,31-17.8,42.3
								C344.5,303,329.3,309.2,313.1,309.2C313.1,309.2,313.1,309.2,313.1,309.2z"/>
							<path class="st7" d="M313.1,193.2c31.6,0,57.2,25.2,57.2,56.2s-25.6,56.3-57.2,56.3s-57.2-25.2-57.2-56.2
								S281.5,193.2,313.1,193.2 M313.1,186.2L313.1,186.2c-17.1,0-33.2,6.6-45.3,18.5c-12.1,12-18.8,27.8-18.8,44.8
								c0,34.9,28.8,63.2,64.2,63.2c35.4,0,64.2-28.4,64.2-63.3C377.3,214.6,348.5,186.2,313.1,186.2L313.1,186.2z"/>
						</g>
						<g>
							<path class="st11" d="M258.5,258.4c0-31.1,25.6-56.3,57.2-56.3c24.5,0,45.3,15.1,53.5,36.4c-5.2-25.8-28.3-45.3-56.1-45.3
								c-31.6,0-57.2,25.2-57.2,56.3c0,7,1.3,13.7,3.7,19.9C258.9,265.8,258.5,262.2,258.5,258.4z"/>
						</g>
						<g>
							<defs>
								<ellipse id="SVGID_00000049908983622024968430000003840940503715341442_" cx="313.1" cy="249.5" rx="57.2" ry="56.3"/>
							</defs>
							<clipPath id="SVGID_00000136382644223012709550000017353224491554111902_">
								<use xlink:href="#SVGID_00000049908983622024968430000003840940503715341442_"  style="overflow:visible;"/>
							</clipPath>
							<g style="clip-path:url(#SVGID_00000136382644223012709550000017353224491554111902_);">
								
									<linearGradient id="SVGID_00000168079231186242851910000010399154159823655846_" gradientUnits="userSpaceOnUse" x1="-466.0838" y1="851.7175" x2="-393.6005" y2="924.2009" gradientTransform="matrix(1 0 0 1 742.4957 -632.2931)">
									<stop  offset="0.1488" style="stop-color:#251706"/>
									<stop  offset="0.7925" style="stop-color:#593B1C"/>
								</linearGradient>
								
									<ellipse style="fill:url(#SVGID_00000168079231186242851910000010399154159823655846_);" cx="312.8" cy="255.8" rx="46.8" ry="53.7"/>
								
									<linearGradient id="SVGID_00000101075588092876785590000005368091749425876125_" gradientUnits="userSpaceOnUse" x1="-438.8455" y1="878.9559" x2="-393.7689" y2="924.0325" gradientTransform="matrix(1 0 0 1 742.4957 -632.2931)">
									<stop  offset="0" style="stop-color:#251706"/>
									<stop  offset="1" style="stop-color:#593B1C"/>
								</linearGradient>
								<path style="opacity:0.5;fill:url(#SVGID_00000101075588092876785590000005368091749425876125_);" d="M339.5,211.7
									c7.3,9.5,11.7,21.9,11.7,35.5c0,29.7-21,53.7-46.8,53.7c-9.9,0-19.2-3.6-26.7-9.6c8.6,11.2,21.1,18.2,35.1,18.2
									c25.9,0,46.8-24.1,46.8-53.7C359.6,237.5,351.7,221.4,339.5,211.7z"/>
								<ellipse class="st15" cx="311.2" cy="244.2" rx="35.6" ry="34.4"/>
								<circle class="st16" cx="339.1" cy="231.8" r="23.9"/>
								<circle class="st4" cx="339.1" cy="231.8" r="18.2"/>
								<circle class="st4" cx="304.1" cy="252.6" r="6.8"/>
								<path class="st4" d="M282.9,270.9c0,2.6-3.2,10.2,9,20.2c-12.4-8.2-18.3-17.7-18.3-20.2c0-2.6,2.1-4.7,4.7-4.7
									C280.8,266.2,282.9,268.3,282.9,270.9z"/>
							</g>
						</g>
					</g>
					<g>
						<path class="st9" d="M134.2,170.6c-28,0-52.3,16.2-63.7,39.6"/>
						<g>
							
								<linearGradient id="SVGID_00000018948316487243283060000009951679041737841029_" gradientUnits="userSpaceOnUse" x1="-650.9227" y1="839.2118" x2="-565.78" y2="924.3544" gradientTransform="matrix(1 0 0 1 742.4957 -632.2931)">
								<stop  offset="0.1488" style="stop-color:#FFF5D3"/>
								<stop  offset="0.7925" style="stop-color:#AF99AA"/>
							</linearGradient>
							<path style="fill:url(#SVGID_00000018948316487243283060000009951679041737841029_);" d="M134.2,309.3
								c-33.5,0-60.7-26.8-60.7-59.7c0-16,6.3-31,17.8-42.3c11.5-11.3,26.7-17.5,42.9-17.5c33.5,0,60.7,26.8,60.7,59.7
								C194.8,282.4,167.6,309.2,134.2,309.3L134.2,309.3z"/>
							<path class="st7" d="M134.2,193.3c31.6,0,57.2,25.2,57.2,56.2s-25.6,56.3-57.2,56.3S77,280.6,77,249.5
								S102.6,193.3,134.2,193.3 M134.2,186.3L134.2,186.3c-17.1,0-33.2,6.6-45.3,18.5c-12.1,12-18.8,27.8-18.8,44.8
								c0,34.9,28.8,63.2,64.2,63.2c35.4,0,64.2-28.4,64.2-63.3C198.3,214.6,169.5,186.3,134.2,186.3L134.2,186.3z"/>
						</g>
						<g>
							<path class="st11" d="M79.6,258.4c0-31.1,25.6-56.3,57.2-56.3c24.5,0,45.3,15.1,53.5,36.4c-5.2-25.8-28.3-45.3-56.1-45.3
								c-31.6,0-57.2,25.2-57.2,56.3c0,7,1.3,13.7,3.7,19.9C79.9,265.8,79.6,262.2,79.6,258.4z"/>
						</g>
						<g>
							<defs>
								<ellipse id="SVGID_00000017499341496176431520000007533335081364682674_" cx="134.2" cy="249.5" rx="57.2" ry="56.3"/>
							</defs>
							<clipPath id="SVGID_00000127030876107074334160000001496618284150363048_">
								<use xlink:href="#SVGID_00000017499341496176431520000007533335081364682674_"  style="overflow:visible;"/>
							</clipPath>
							<g style="clip-path:url(#SVGID_00000127030876107074334160000001496618284150363048_);">
								
									<linearGradient id="SVGID_00000092433756704936457440000014461905875815837077_" gradientUnits="userSpaceOnUse" x1="-645.0237" y1="851.7202" x2="-572.5403" y2="924.2036" gradientTransform="matrix(1 0 0 1 742.4957 -632.2931)">
									<stop  offset="0.1488" style="stop-color:#251706"/>
									<stop  offset="0.7925" style="stop-color:#593B1C"/>
								</linearGradient>
								
									<ellipse style="fill:url(#SVGID_00000092433756704936457440000014461905875815837077_);" cx="133.9" cy="255.8" rx="46.8" ry="53.7"/>
								
									<linearGradient id="SVGID_00000101784126904098000050000001449511985062735759_" gradientUnits="userSpaceOnUse" x1="-617.7855" y1="878.9586" x2="-572.7088" y2="924.0352" gradientTransform="matrix(1 0 0 1 742.4957 -632.2931)">
									<stop  offset="0" style="stop-color:#251706"/>
									<stop  offset="1" style="stop-color:#593B1C"/>
								</linearGradient>
								<path style="opacity:0.5;fill:url(#SVGID_00000101784126904098000050000001449511985062735759_);" d="M160.6,211.7
									c7.3,9.5,11.7,21.9,11.7,35.5c0,29.7-21,53.7-46.8,53.7c-9.9,0-19.2-3.6-26.7-9.6c8.6,11.2,21.1,18.2,35.1,18.2
									c25.9,0,46.8-24.1,46.8-53.7C180.7,237.5,172.7,221.4,160.6,211.7z"/>
								<ellipse class="st15" cx="132.3" cy="244.2" rx="35.6" ry="34.4"/>
								<circle class="st16" cx="160.2" cy="231.8" r="23.9"/>
								<circle class="st4" cx="160.2" cy="231.8" r="18.2"/>
								<circle class="st4" cx="125.2" cy="252.6" r="6.8"/>
								<path class="st4" d="M104,270.9c0,2.6-3.2,10.2,9,20.2c-12.4-8.2-18.3-17.7-18.3-20.2s2.1-4.7,4.7-4.7
									C101.9,266.2,104,268.3,104,270.9z"/>
							</g>
						</g>
					</g>
				</g>
				<g>
					<path class="st4" d="M347.1,303.8c-21.5,0-23.6,8.8-40.7,8.8c-20.2,0-34.4-25.3-56.3-38.6c-4.4-2.8-9.2-5-14.8-6.4
						c-0.4-0.1-0.7-0.2-1.1-0.3c-0.3-0.1-0.7-0.2-1-0.2c-0.9-0.2-6.5-0.9-9.6-0.9c0,0,0,0,0,0c0,0,0,0,0,0c-3,0-8.7,0.7-9.6,0.9
						c-0.3,0.1-0.7,0.2-1,0.2c-0.4,0.1-0.7,0.2-1.1,0.3c-5.6,1.4-10.4,3.6-14.8,6.4c-21.9,13.3-36.1,38.6-56.3,38.6
						c-17.1,0-19.2-8.8-40.7-8.8c-18.6,0-35.5,20.1-29.2,43c7.9,28.8,52.9,89.8,143.3,89.8c0.1,0,0.1,0,0.2,0c0.7,0,17.3,0,18.1,0
						c0.1,0,0.2,0,0.2,0c90.5,0,135.4-60.9,143.3-89.8C382.5,323.9,365.6,303.8,347.1,303.8z"/>
				</g>
				<g>
					<g>
						<g>
							<path class="st5" d="M347.1,303.8C347,303.8,347,303.8,347.1,303.8c1.8,6,2,12.7,0.1,19.7c-7.9,28.8-52.9,89.8-143.3,89.8
								c-0.1,0-0.1,0-0.2,0c-0.7,0-17.3,0-18.1,0c-0.1,0-0.2,0-0.2,0c-36.2,0-65.1-9.8-87.3-23.3c23.3,24.1,62.9,47.3,116.4,49.5
								c0.1,0,0.1,0,0.2,0c0.7,0,17.3,0,18.1,0c0.1,0,1-0.9,1-0.9c90.9-5,134.6-63,142.5-91.8C382.5,323.9,365.6,303.8,347.1,303.8z
								"/>
						</g>
					</g>
				</g>
				<path class="st3" d="M282.6,429.8c57.5-16.7,87.3-60,93.6-83c6.3-22.9-10.6-43-29.2-43c-21.5,0-23.6,8.8-40.7,8.8
					c-20.2,0-34.4-25.3-56.3-38.6c-4.4-2.8-9.2-5-14.8-6.4c-0.4-0.1-0.7-0.2-1.1-0.3c-0.3-0.1-0.7-0.2-1-0.2
					c-0.9-0.2-6.5-0.9-9.6-0.9h0c-3,0-8.7,0.7-9.6,0.9c-0.3,0.1-0.7,0.2-1,0.2c-0.4,0.1-0.7,0.2-1.1,0.3c-5.6,1.4-10.4,3.6-14.8,6.4
					c-21.9,13.3-36.1,38.6-56.3,38.6c-17.1,0-19.2-8.8-40.7-8.8c-18.6,0-35.5,20.1-29.2,43c6.3,23,36.1,66.3,93.6,83"/>
				<g>
					<g>
						<path class="st21" d="M223.1,324.7c-8.6,0-20.2-11.9-20.7-12.4c-0.3-0.3-0.5-0.8-0.4-1.2c0.1-0.5,0.3-0.9,0.7-1.1
							c0,0,3.3-2.1,4.6-5.7c1.2-3.6-1.8-6.7-3.8-8.1c-1.1-0.8-2-0.9-2.5-0.9c-0.5,0-0.7,0.1-0.9,0.2c0,0.3,0.3,0.4,2,1.2l0.9,0.4
							c2.1,1.1,3.6,2.8,3.9,4.6c0.2,1.4-0.2,2.8-1.3,4c-0.9,0.9-2.1,1.4-3.6,1.4c-2.8,0-6.6-1.7-9.1-4.1c-3.5-3.3-7.5-10.1-4.3-15.5
							c2.5-4.4,15.9-12.9,35.2-12.9c19.3,0,32.6,8.5,35.2,12.9c3.1,5.4-0.9,12.2-4.3,15.5c-2.6,2.4-6.3,4.1-9.1,4.1l0,0
							c-1.5,0-2.7-0.5-3.6-1.4c-1.1-1.1-1.5-2.5-1.3-4c0.3-1.8,1.8-3.6,3.9-4.7l0.9-0.4c1.6-0.8,1.9-1,2-1.2
							c-0.1-0.1-0.4-0.2-0.9-0.2c-0.5,0-1.4,0.1-2.5,0.9c-1.9,1.5-5,4.5-3.8,8.1c1.2,3.6,4.5,5.7,4.6,5.7c0.4,0.2,0.6,0.6,0.7,1.1
							c0.1,0.5-0.1,0.9-0.4,1.2c-0.5,0.5-12,12.4-20.7,12.4H223.1z"/>
						<path class="st7" d="M223.6,276.1c18.4,0,31.5,8.1,33.9,12.1c2.7,4.6-1.2,10.9-4.1,13.6c-2.2,2.1-5.6,3.7-8.1,3.7
							c-1,0-1.9-0.3-2.5-0.9c-2.1-2.2-0.5-4.9,2.2-6.2c2.7-1.3,3.7-1.6,3.7-3.2c0-0.9-1-1.5-2.4-1.5c-1,0-2.3,0.4-3.4,1.2
							c-2.7,2-5.7,5.6-4.3,9.8c1.4,4.2,5.2,6.5,5.2,6.5s-11.5,12-19.6,12c-0.2,0-0.9,0-1.1,0c-8.1,0-19.6-12-19.6-12
							s3.8-2.3,5.2-6.5s-1.6-7.8-4.3-9.8c-1.2-0.9-2.4-1.2-3.4-1.2c-1.4,0-2.4,0.6-2.4,1.5c0,1.6,1,1.8,3.7,3.2s4.3,4.1,2.2,6.2
							c-0.6,0.6-1.5,0.9-2.5,0.9c-2.5,0-5.9-1.6-8.1-3.7c-2.9-2.7-6.8-9-4.1-13.6C192.1,284.1,205.2,276.1,223.6,276.1
							C223.6,276.1,223.6,276.1,223.6,276.1 M223.6,273.1L223.6,273.1c-18.6,0-33.1,7.9-36.5,13.6c-3.6,6.1,0.8,13.7,4.6,17.3
							c2.4,2.3,6.5,4.6,10.2,4.6c0.1,0,0.1,0,0.2,0c-0.1,0.1-0.2,0.1-0.2,0.1c-0.8,0.5-1.3,1.3-1.4,2.2c-0.1,0.9,0.2,1.8,0.8,2.5
							c1.3,1.3,12.7,12.9,21.8,12.9h1.1c9.1,0,20.5-11.6,21.8-12.9c0.6-0.7,0.9-1.6,0.8-2.5c-0.1-0.9-0.6-1.7-1.4-2.2
							c0,0-0.1,0-0.2-0.1c0.1,0,0.1,0,0.2,0c3.7,0,7.8-2.3,10.2-4.6c3.8-3.6,8.2-11.2,4.6-17.3C256.8,281,242.2,273.1,223.6,273.1
							L223.6,273.1z M200.7,296.7L200.7,296.7L200.7,296.7L200.7,296.7z"/>
					</g>
					<g>
						<path class="st22" d="M223.6,276.1c-18.4,0-31.5,8.1-33.9,12.1c-2.7,4.6,1.2,10.9,4.1,13.6c0.8,0.7,1.7,1.4,2.7,2
							c-2.6-2.3-3.8-6.9-0.4-9.1c1.2-0.7,2.7-1.1,4.2-1c1.1-0.2,2.6,0.1,4,1.2c2.7,2,5.7,5.6,4.3,9.8c-0.7,2-1.9,3.6-3,4.7
							c0.8-0.5,1.7-0.9,2.5-1.4c2.5-1.6,4.9-3.6,5.9-6.1c0.5-1.2,0.6-2.4,0.3-3.6c-0.3-1.4-1-2.4-2.1-3.4c-2.1-1.9-5.6-4.1-5-7
							c0.6-3,4.7-4.2,7.7-4.8c8.9-1.8,18.5-0.5,27.4,0.6c3.8,0.5,7.6,0.9,11.3,1.9c0.6,0.2,1.3,0.3,1.9,0.5
							C250.8,281.8,239.1,276.1,223.6,276.1z"/>
					</g>
				</g>
				<line class="st23" x1="223.6" y1="326" x2="223.6" y2="338"/>
			</g>
		</g>
	</g>
	<g>
		<path class="st23" d="M223.6,338c-11.7,0-20.7,27.3-49.5,26.7c-28.8-0.6-46.2-18.3-46.2-18.3"/>
		<path class="st23" d="M223.6,338c11.7,0,20.7,27.3,49.5,26.7c28.8-0.6,46.2-18.3,46.2-18.3"/>
	</g>
	<path class="st23" d="M113.8,352.6c-1.3-4.7,0.1-10,3.5-13.5s8.6-5.1,13.3-4"/>
	<path class="st23" d="M313.8,338c1.9-0.3,3.7-0.5,5.6-0.6c1.2-0.1,2.5-0.1,3.6,0.4c1.6,0.7,2.7,2.2,3.6,3.7c1.2,2,2.3,4.3,2.1,6.7"
		/>
	<g>
		<g>
			<path class="st6" d="M223.6,459.2c-39.6,0-61.7-2.7-73.8-9.2c-0.6-0.3-0.9-1-0.7-1.7c0.1-0.4,0.1-0.8-0.2-1.3
				c-0.3-0.7-1-1.3-1.8-1.9c-0.5-0.4-1-0.7-1.4-1c-0.7-0.5-1.4-1-2.1-1.6c-1-0.8-2.4-2-2.6-3.6c-0.2-1.2,0.3-2.5,1.5-3.7
				c0.8-0.8,1.7-1.5,2.5-2.2c1-0.7,1.9-1.4,2.6-2.3c1.2-1.5,1.3-3.6,0.2-5.4c-1.3-2.2-3.9-3.4-6.3-4.4c-0.6-0.3-1.3-0.5-2-0.7
				c-0.8-0.3-1.6-0.6-2.5-0.9c-0.6-0.2-0.9-0.8-0.9-1.4c0.1-1.9,0.2-4,0.3-6c0-0.5,0.3-1,0.8-1.2c0.8-0.4,1.5-0.8,2.3-1.3
				c0.8-0.5,1.7-0.9,2.5-1.4c3-1.7,5.9-3.6,6-6.2c0.1-0.8-0.2-1.7-0.7-2.5c-0.2-0.3-0.5-0.7-0.8-1c-0.7-0.9-1.5-1.9-1.8-3.3
				c-0.3-1.2-0.3-2.4,0-3.7l0.1-0.7c0.2-0.7,0.3-1.4,0.4-2.1c0.1-1.3-0.4-2.7-1-4.1l-0.2-0.5c-0.6-1.6-1.3-3.5-1-5.5
				c0.2-1.7,1.3-3.2,2.8-4.3c0.5-0.4,1.2-0.7,1.7-1c1.2-0.6,2.4-1.3,2.8-2.2c0.5-1.2-1-3-2.3-3.6c-0.6-0.3-1.3-0.5-2-0.8
				c-0.2-0.1-0.5-0.2-0.7-0.2c-0.6-0.2-1.2-0.4-1.8-0.9c-0.6-0.4-0.8-1.1-0.5-1.8c0.5-1.3,1.1-2.6,1.7-3.8c0.3-0.5,0.8-0.9,1.4-0.9
				c0.2,0,0.4,0,0.6,0.1c8.7,3.8,18,5.9,27.5,6.1c0.3,0,0.6,0,0.9,0c17.3,0,27.7-10.3,35.3-17.8c4.8-4.8,9-8.9,13.3-8.9
				c4.3,0,8.5,4.1,13.3,8.9c7.6,7.5,18,17.8,35.3,17.8c0.3,0,0.6,0,0.9,0c9.5-0.2,18.8-2.2,27.5-6.1c0.2-0.1,0.4-0.1,0.6-0.1
				c0.6,0,1.1,0.3,1.4,0.9c0.4,0.9,0.8,1.7,1.2,2.6c0.3,0.6,0.1,1.4-0.5,1.8c-0.3,0.2-0.7,0.5-1,0.7c-1.2,0.9-2,1.8-2.6,2.7
				c-0.1,0.2-0.3,0.4-0.4,0.7c-0.5,0.8-1.1,1.6-1.2,2.3c-0.1,0.3,0,0.6,0.3,1.3c0.2,0.5,0.5,1.2,0.7,1.8c0.1,0.2,0.1,0.5,0.2,0.7
				c0.2,0.5,0.3,1,0.5,1.4c0.2,0.3,0.5,0.7,0.7,1c0.7,0.8,1.4,1.8,1.6,3.2c0.3,2.1-0.7,3.8-1.6,5.1l-0.2,0.3
				c-0.7,1.1-1.4,2.3-1.3,3.3c0.1,1.1,0.4,2,0.9,2.6c0.3,0.5,0.8,1,1.5,1.4c0.1,0.1,0.3,0.2,0.4,0.3c0.5,0.3,1,0.6,1.5,1.1
				c0.8,0.8,1,1.9,0.6,3.2c-0.4,1.4-1.1,2.8-2.3,4.5c-1,1.4-2.3,2.4-3.5,3.4l-0.3,0.2c-0.7,0.5-1.4,1-1.8,1.6
				c-0.8,1.3,0.3,3.6,1.5,4.7c1,0.9,2.2,1.6,3.4,2.4c0.9,0.5,1.8,1.1,2.6,1.7c2.9,2.1,4,4.9,3.2,7.6c-0.8,2.5-3.1,3.9-5,4.8
				c-1.1,0.5-2.2,0.9-3.2,1.3c-1,0.4-2,0.8-3,1.2c-1.9,0.9-3.1,1.9-3.5,3c-1.6,3.7,2.9,7.6,3.8,8.3c1.4,1.1,3,2.1,4.9,3.1
				c0.5,0.2,0.8,0.7,0.8,1.2s-0.2,1-0.6,1.3C289.8,455.9,267.3,459.2,223.6,459.2z"/>
			<path class="st7" d="M223.6,340c3.7,0,7.7,3.9,12.3,8.5c7.8,7.7,18.4,18.2,36.3,18.2c0.3,0,0.6,0,1,0c11.2-0.2,20.6-2.9,28.1-6.2
				c0.4,0.8,0.8,1.7,1.2,2.6c-0.3,0.3-0.7,0.5-1,0.8c-1.1,0.9-2.2,1.8-2.9,3.1c-0.7,1.1-1.6,2.2-1.9,3.4c-0.2,0.8,0.1,1.5,0.4,2.2
				c0.2,0.6,0.5,1.1,0.6,1.7c0.3,0.8,0.4,1.6,0.9,2.4c0.7,1.2,2,2.2,2.2,3.7c0.3,1.7-0.7,3.1-1.6,4.4c-0.8,1.3-1.7,2.7-1.5,4.2
				c0.1,1.2,0.5,2.4,1.1,3.3c0.5,0.7,1.2,1.3,1.9,1.8c0.6,0.4,1.2,0.7,1.6,1.2c0.5,0.5,0.5,1.1,0.3,1.8c-0.4,1.4-1.2,2.8-2.1,4
				c-0.9,1.2-2,2.2-3.2,3c-0.9,0.7-1.8,1.3-2.4,2.2c-1.3,2.1,0.1,5,1.7,6.6c1.8,1.7,4.2,2.7,6.2,4.2c1.9,1.4,3.4,3.5,2.6,6
				c-0.6,1.9-2.5,3-4.2,3.9c-2,1-4.2,1.6-6.2,2.6c-1.7,0.8-3.5,1.9-4.3,3.7c-1.7,3.9,1.4,7.8,4.3,10.1c1.6,1.3,3.3,2.3,5.1,3.2
				c-10.6,7.6-32.5,11.1-76.6,11.1c-39.8,0-61.5-2.8-73.1-9c0.2-0.7,0.1-1.5-0.2-2.3c-0.5-1-1.4-1.8-2.3-2.4
				c-1.2-0.9-2.4-1.7-3.5-2.6c-0.8-0.7-1.9-1.6-2.1-2.7c-0.1-0.9,0.5-1.9,1.1-2.5c1.6-1.7,3.8-2.7,5.2-4.6c1.7-2.1,1.7-4.9,0.3-7.1
				c-1.5-2.5-4.4-3.9-7.1-5c-1.4-0.6-3-1-4.4-1.6c0.1-1.9,0.2-3.9,0.3-6c1.6-0.9,3.2-1.7,4.8-2.7c2.8-1.6,6.5-3.9,6.8-7.4
				c0.1-1.2-0.3-2.4-0.9-3.4c-0.8-1.3-2.1-2.3-2.4-3.8c-0.2-1.1-0.2-2,0-3.1c0.2-1,0.5-2,0.5-3c0.1-1.7-0.6-3.4-1.2-4.9
				c-0.6-1.5-1.3-3.3-1-4.9c0.2-1.3,1-2.5,2.1-3.3c1.7-1.1,4.2-1.9,5.1-3.8c0.9-2.2-1.2-4.6-3-5.6c-0.9-0.5-1.9-0.7-2.9-1.1
				c-0.5-0.2-1-0.4-1.4-0.7c0.5-1.3,1.1-2.5,1.7-3.7c7.5,3.3,16.9,6,28.1,6.2c0.3,0,0.6,0,1,0c17.9,0,28.5-10.5,36.3-18.2
				C216,344,219.9,340,223.6,340 M223.6,337c-4.9,0-9.3,4.3-14.4,9.3c-7.8,7.7-17.5,17.4-34.2,17.4c-0.3,0-0.6,0-0.9,0
				c-9.3-0.2-18.4-2.2-27-6c-0.4-0.2-0.8-0.3-1.2-0.3c-1.1,0-2.2,0.6-2.7,1.7c-0.6,1.3-1.2,2.6-1.7,3.9c-0.5,1.3-0.1,2.7,1,3.6
				c0.7,0.5,1.5,0.9,2.2,1.1c0.3,0.1,0.5,0.2,0.8,0.3c0.6,0.2,1.3,0.4,1.7,0.7c0.9,0.4,1.5,1.4,1.6,1.7c-0.2,0.4-1.3,1-2.1,1.4
				c-0.6,0.3-1.3,0.7-1.9,1.1c-1.9,1.3-3.1,3.2-3.4,5.3c-0.4,2.4,0.5,4.5,1.1,6.2l0.1,0.2l0.1,0.2c0.5,1.3,0.9,2.5,0.9,3.5
				c0,0.5-0.2,1.1-0.3,1.8c-0.1,0.2-0.1,0.5-0.2,0.7c-0.3,1.6-0.3,3,0,4.4c0.4,1.7,1.3,2.9,2.1,3.9c0.3,0.3,0.5,0.6,0.7,0.9
				c0.3,0.5,0.5,1.1,0.5,1.6c-0.1,2-3.4,3.9-5.3,5c-0.8,0.5-1.6,0.9-2.5,1.4c-0.8,0.4-1.5,0.8-2.3,1.3c-0.9,0.5-1.5,1.4-1.5,2.5
				c-0.1,2-0.2,4-0.3,6.1c0,1.3,0.7,2.4,1.9,2.9c0.9,0.4,1.7,0.7,2.6,0.9c0.7,0.2,1.3,0.4,1.9,0.7c2.2,0.9,4.5,2,5.6,3.7
				c0.8,1.3,0.7,2.7-0.1,3.7c-0.6,0.7-1.4,1.4-2.3,2c-0.9,0.7-1.8,1.4-2.7,2.3c-1.8,2-2,3.8-1.9,5c0.3,2.3,2.1,3.7,3.1,4.6l0,0
				c0.7,0.6,1.5,1.1,2.2,1.6c0.5,0.3,0.9,0.7,1.4,1c0.5,0.4,1.2,0.9,1.4,1.3c0,0.1,0.1,0.2,0.1,0.2c-0.4,1.4,0.3,2.8,1.5,3.4
				c12.4,6.5,34.7,9.3,74.5,9.3c44.1,0,66.7-3.4,78.3-11.6c0.9-0.6,1.3-1.6,1.2-2.7c-0.1-1-0.7-2-1.6-2.4c-1.8-0.9-3.3-1.9-4.6-2.9
				c-0.5-0.4-4.6-3.7-3.4-6.5c0.3-0.8,1.2-1.5,2.8-2.2c0.9-0.4,1.9-0.8,2.9-1.2c1.1-0.4,2.2-0.8,3.3-1.4c2-1,4.8-2.6,5.7-5.7
				c1-3.3-0.4-6.8-3.7-9.3c-0.9-0.7-1.9-1.2-2.8-1.8c-1.2-0.7-2.3-1.4-3.2-2.2c-1-1-1.5-2.4-1.3-2.8c0.2-0.4,0.8-0.8,1.4-1.3
				l0.3-0.2c1.3-1,2.7-2.2,3.8-3.7c1.3-1.8,2.1-3.4,2.6-5c0.6-2.4-0.3-3.9-1-4.6c-0.6-0.7-1.3-1.1-1.8-1.4c-0.1-0.1-0.3-0.2-0.4-0.2
				c-0.5-0.4-0.9-0.7-1.1-1c-0.3-0.5-0.5-1.1-0.6-1.9c0-0.5,0.6-1.5,1.1-2.3l0-0.1l0.2-0.3c0.9-1.5,2.2-3.5,1.8-6.2
				c-0.3-1.8-1.2-3-1.9-3.9c-0.3-0.3-0.5-0.6-0.6-0.9c-0.1-0.2-0.2-0.6-0.4-1.1c-0.1-0.2-0.1-0.5-0.2-0.7c-0.2-0.7-0.5-1.4-0.7-1.9
				c0-0.1-0.1-0.3-0.2-0.5c0.2-0.5,0.6-1.1,1-1.7c0.2-0.2,0.3-0.5,0.5-0.7c0.5-0.8,1.2-1.5,2.2-2.3c0.3-0.2,0.6-0.5,1-0.7
				c1.1-0.8,1.6-2.3,1-3.6c-0.4-1-0.8-1.9-1.2-2.7c-0.5-1.1-1.6-1.7-2.7-1.7c-0.4,0-0.8,0.1-1.2,0.3c-8.6,3.8-17.6,5.8-27,6
				c-0.3,0-0.6,0-0.9,0c-16.7,0-26.4-9.6-34.2-17.4C232.9,341.4,228.6,337,223.6,337L223.6,337z"/>
		</g>
	</g>
	<g>
		<g>
			<g>
				<path class="st8" d="M302.8,417.2c-2-1.5-4.4-2.5-6.2-4.2c-1.6-1.5-3-4.5-1.7-6.6c0.6-0.9,1.5-1.6,2.4-2.2
					c1.2-0.9,2.3-1.8,3.2-3c0.9-1.2,1.7-2.6,2.1-4c0.2-0.6,0.2-1.3-0.3-1.8c-0.5-0.5-1.1-0.8-1.6-1.2c-0.7-0.5-1.4-1.1-1.9-1.8
					c-0.7-1-1-2.2-1.1-3.3c-0.2-1.5,0.8-3,1.5-4.2c0.8-1.3,1.8-2.8,1.6-4.4c-0.2-1.5-1.5-2.4-2.2-3.7c-0.4-0.7-0.6-1.6-0.9-2.4
					c-0.2-0.6-0.4-1.2-0.6-1.7c-0.3-0.7-0.5-1.4-0.4-2.2c0.3-1.2,1.2-2.4,1.9-3.4c0.8-1.2,1.8-2.2,2.9-3.1c0.3-0.3,0.7-0.5,1-0.8
					c-0.4-0.9-0.8-1.7-1.2-2.6c-7.5,3.3-16.9,6-28.1,6.2c-0.3,0-0.6,0-1,0c-17.9,0-28.5-10.5-36.3-18.2c-4.6-4.5-8.6-8.5-12.3-8.5
					c-3.7,0-7.7,3.9-12.3,8.5c-7.8,7.7-18.4,18.2-36.3,18.2c-0.3,0-0.6,0-1,0c-11.2-0.2-20.6-2.9-28.1-6.2c-0.6,1.2-1.1,2.5-1.7,3.7
					c0.4,0.3,0.9,0.5,1.4,0.7c1,0.3,2,0.6,2.9,1.1c1.8,0.9,3.9,3.4,3,5.6c-0.2,0.4-0.4,0.7-0.7,1c5.8,2.3,12.2,3.3,18.4,3.8
					c10.4,0.7,20.8-0.3,31.2-1.6c11.6-1.4,24-4,34.9,1.9c3.1,1.7,6.1,3.7,9.3,5.3c3.1,1.6,6.3,3,9.6,4.1c3.4,1,6.9,1.7,10.5,1.7
					c3,0,5.9-0.5,8.8-1c4.1-0.7,9.2-1.4,11.2,3.2c1.3,3,1.3,6.6,1.1,9.8c-0.2,3.5-1,6.8-1.6,10.2c-0.6,3.7-0.4,7.4,0.2,11.1
					c0.5,3.1,1.4,6.2,0.9,9.3c-0.8,5-4.8,8-9.1,10c-3,1.4-6.2,2.5-9.4,3.6c-3.6,1.2-7.3,2.4-10.9,3.4c-7.4,2.1-15,3.7-22.6,4.8
					c-15.4,2.3-31,2.5-46.6,2.1c-8.1-0.2-16.1-0.6-24.2-1.2l0,0c12.9,3.2,32.3,4.7,61.3,4.7c44,0,65.9-3.5,76.6-11.1
					c-1.8-0.9-3.5-2-5.1-3.2c-2.9-2.3-5.9-6.2-4.3-10.1c0.8-1.8,2.6-2.9,4.3-3.7c2-1,4.2-1.6,6.2-2.6c1.7-0.8,3.6-1.9,4.2-3.9
					C306.2,420.7,304.7,418.5,302.8,417.2z"/>
			</g>
		</g>
	</g>
	<g>
		<path class="st0" d="M211.3,370c0.4-2.2,1.4-4.7,3.6-5.2c1.4-0.3,2.8,0.4,3.9,1.2c2.2,1.5,3.9,3.7,5,6.1c0.7,1.7,1.1,3.5,1.5,5.3
			c1,4.4,2,8.9,3.8,13.1c1.9,4.1,4.8,8,8.7,10.2c1.8,1,3.9,1.8,5,3.6c0.6,1,0.8,2.1,0.8,3.3c0,4.6-2.7,8.7-4.9,12.9
			c-2.6,5-4.3,10.4-5.2,15.9c-0.3,1.7-0.5,3.6-1.7,4.8c-1.5,1.5-3.9,1.6-6,1.5c-10.6-0.4-21.2-2.5-31.2-6c-2.4-0.9-4.9-1.8-6.8-3.5
			s-3.3-4.3-2.9-6.8c0.2-1.5,1-3,0.6-4.5c-0.4-1.4-1.8-2.3-2.5-3.6c-1.6-2.7,0.2-6.4,2.8-8.1c0.8-0.5,1.7-1,2.2-1.8
			c0.8-1.4,0.1-3.1-0.3-4.6c-1.1-3.6-0.5-8.1,2.6-10.2c2-1.4,4.7-1.4,7.1-0.9c2.4,0.5,4.6,1.6,6.9,2.4c1.9,0.7,6.6,2.5,8.5,1.2
			c2.1-1.4,0.6-4.5-0.1-6.3C210.6,383.5,210,376.7,211.3,370z"/>
		<path class="st0" d="M238.5,438.3c-0.1,1.7-0.1,3.7,1,5c1.2,1.4,3.3,1.7,5,1.1c1.7-0.6,3.1-1.9,4.3-3.3c6-7,8.3-16.4,8.7-25.6
			c0.1-2.3,0-4.8-1.3-6.7c-4.9-7.1-10.4,5.3-12,8.7C241,424,239.1,431.1,238.5,438.3z"/>
	</g>
</g>
</svg>
