<?xml version="1.0" encoding="utf-8"?>
<!-- Generator: Adobe Illustrator 26.0.2, SVG Export Plug-In . SVG Version: 6.00 Build 0)  -->
<svg version="1.1" id="Layer_1" xmlns="http://www.w3.org/2000/svg" xmlns:xlink="http://www.w3.org/1999/xlink" x="0px" y="0px"
	 viewBox="0 0 200.8 39.4" style="enable-background:new 0 0 200.8 39.4;" xml:space="preserve">
<style type="text/css">
	.st0{fill:#FFFFFF;}
</style>
<g>
	<path class="st0" d="M24.8,0.5c1.3-0.2,2.4,0.1,3.5,0.8c1,0.8,1.7,1.8,1.9,3c0.2,1.3-0.1,2.4-0.8,3.5L19.1,21.9l-0.4,11.8
		c0,1.3-0.5,2.3-1.4,3.2c-0.9,0.9-2,1.3-3.3,1.3h-0.1c-1.3,0-2.4-0.5-3.3-1.5c-0.9-0.9-1.3-2.1-1.2-3.4l0.3-10.9L0.7,7.1
		C0,5.9-0.2,4.8,0.2,3.5c0.3-1.2,1-2.2,2.1-2.8C3.4,0,4.6-0.2,5.9,0.2c1.3,0.3,2.2,1,2.8,2.1l5.9,10l7.2-9.9
		C22.5,1.3,23.5,0.7,24.8,0.5z"/>
	<path class="st0" d="M46,6.5c2.6,0.7,4.8,2,6.7,3.9c1.9,1.9,3.2,4.2,3.9,6.8c0.7,2.6,0.7,5.3,0.1,8c-0.9,3.5-2.7,6.3-5.5,8.5
		c-2.8,2.2-5.9,3.3-9.3,3.3c-1.2,0-2.3-0.1-3.4-0.4c-2.6-0.7-4.8-2-6.7-3.9c-1.9-1.9-3.2-4.2-3.9-6.8c-0.7-2.6-0.7-5.3-0.1-8
		c0.7-2.7,2-5,3.9-7c1.9-2,4.1-3.4,6.7-4.1c2.5-0.8,5.1-0.9,7.7-0.2C45.9,6.5,45.9,6.5,46,6.5C45.9,6.5,45.9,6.5,46,6.5z M47.5,22.9
		c0.4-1.6,0.2-3.1-0.5-4.5c-0.8-1.4-1.9-2.3-3.3-2.7c-0.4-0.1-0.8-0.1-1.2-0.1c-0.9,0-1.7,0.2-2.5,0.6c-0.8,0.4-1.5,1-2,1.7
		c-0.6,0.7-1,1.5-1.2,2.5c-0.4,1.6-0.2,3.1,0.5,4.5c0.8,1.4,1.9,2.3,3.4,2.7c1.5,0.4,2.9,0.1,4.2-0.8C46.2,25.8,47.1,24.5,47.5,22.9
		z"/>
	<path class="st0" d="M82.8,9.7c0,0.8,0.1,1.7,0.1,2.6c0,1,0,2.4-0.2,4.2c-0.1,1.9-0.3,3.6-0.7,5.2c-0.3,1.6-0.9,3.4-1.6,5.2
		c-0.8,1.8-1.7,3.3-2.8,4.5c-2.2,2.4-5,3.6-8.2,3.6c-3.4,0-6.1-1.3-8.2-3.8c-1-1.2-1.8-2.7-2.4-4.5c-0.6-1.8-1-3.5-1.1-5.1
		c-0.2-1.6-0.2-3.3-0.2-5.2c0.1-1.8,0.1-3.2,0.2-4.2c0.1-0.9,0.3-1.8,0.4-2.6c0.2-1.3,0.8-2.3,1.9-3c1.1-0.7,2.2-1,3.5-0.8
		c1.3,0.2,2.3,0.9,3,1.9c0.8,1.1,1,2.2,0.8,3.5c-0.4,2.1-0.6,4.7-0.4,7.8c0.1,3.1,0.6,5.1,1.5,6.1c0.2,0.3,0.6,0.4,1,0.4
		c0.5,0,1-0.2,1.4-0.6c1.1-1.2,1.8-3.2,2.3-6.2c0.4-3,0.6-5.8,0.4-8.5c-0.1-0.8,0.1-1.6,0.4-2.4c0.4-0.7,0.9-1.4,1.6-1.8
		c0.7-0.5,1.4-0.7,2.3-0.8c0.8-0.1,1.6,0.1,2.4,0.5C81,6.2,81.6,6.7,82,7.4C82.5,8.1,82.8,8.8,82.8,9.7z"/>
	<path class="st0" d="M111.1,6.4l6.1,27.4c0.3,1.3,0,2.4-0.6,3.5c-0.7,1.1-1.7,1.8-2.9,2.1c-0.3,0.1-0.7,0.1-1,0.1
		c-0.7,0-1.4-0.1-2-0.4c-0.6-0.3-1.2-0.7-1.6-1.3c-0.5-0.6-0.7-1.2-0.9-1.9L105.6,25l-1.7,5.2c-0.3,0.9-0.8,1.7-1.6,2.3
		c-0.8,0.6-1.7,0.9-2.7,0.9c-1,0-1.9-0.3-2.7-0.8C96,32,95.4,31.3,95,30.4l-2.1-5.8l-2.3,9.6c-0.3,1.2-1,2.2-2.1,2.9
		c-1.1,0.7-2.3,0.9-3.5,0.6c-1.2-0.3-2.2-1-2.9-2.1c-0.7-1.1-0.8-2.3-0.5-3.5l5.9-24.5c0.2-1,0.7-1.8,1.5-2.5c0.8-0.7,1.7-1,2.7-1.1
		c0.7,0,1.4,0.1,2,0.3c0.6,0.2,1.2,0.6,1.6,1.1c0.5,0.5,0.8,1,1,1.6l2.8,7.6l2.9-8.6c0.2-0.7,0.5-1.2,1-1.7c0.5-0.5,1-0.9,1.6-1.1
		c0.6-0.3,1.3-0.4,2-0.3c1.1,0.1,2,0.4,2.8,1.1C110.3,4.5,110.8,5.3,111.1,6.4z"/>
	<path class="st0" d="M135.4,26.7c1.3-0.1,2.4,0.3,3.4,1.1c1,0.8,1.5,1.9,1.6,3.2c0.1,0.8-0.1,1.6-0.4,2.4c-0.4,0.7-0.9,1.4-1.6,1.8
		c-0.7,0.5-1.4,0.8-2.3,0.8c-3.5,0.3-6.4,0.4-8.7,0.4c-3.1,0-5.3-0.3-6.5-0.9c-1.2-0.6-2.1-1.9-2.7-4c-0.6-2-1-4.3-1-6.7
		c-0.1-2.4,0-4.9,0.1-7.3c0.1-2.4,0.3-4.4,0.5-6c0.2-1.5,0.3-2.4,0.4-2.5c0.1-0.4,0.3-0.7,0.4-0.9c0.1-0.2,0.3-0.5,0.7-0.9
		c0.3-0.4,0.7-0.8,1.2-1c0.4-0.3,1.1-0.6,1.9-0.9c0.8-0.3,1.8-0.6,2.8-0.8c1.1-0.2,2.4-0.3,4-0.5c1.6-0.1,3.4-0.2,5.4-0.1
		c1.3,0,2.4,0.5,3.3,1.4c0.9,0.9,1.4,2,1.3,3.3c0,0.6-0.1,1.2-0.4,1.8c-0.2,0.6-0.6,1.1-1,1.5c-0.4,0.4-0.9,0.7-1.5,1
		c-0.6,0.2-1.2,0.4-1.8,0.4c-3,0-5.5,0.1-7.6,0.4c0,0.4-0.1,1-0.1,1.7h8.8c1.3,0,2.4,0.5,3.3,1.4c0.9,0.9,1.4,2,1.4,3.3
		s-0.5,2.4-1.4,3.3c-0.9,0.9-2,1.3-3.3,1.3h-8.9c0,0.9,0.1,1.6,0.2,2.1C129.1,27.1,132,27,135.4,26.7z"/>
	<path class="st0" d="M177.1,31.2c0.2,0.6,0.2,1.3,0.1,1.9c-0.1,0.6-0.3,1.2-0.6,1.7c-0.3,0.5-0.7,1-1.1,1.3c-0.5,0.4-1,0.7-1.7,0.8
		c-1.2,0.3-2.4,0.2-3.5-0.4c-1.1-0.6-1.9-1.6-2.2-2.8l-2.7-9.8l-2.1,6.5c-0.2,0.6-0.5,1.2-0.9,1.7c-0.4,0.5-0.9,0.9-1.5,1.1
		c-0.6,0.3-1.2,0.4-1.9,0.4c-1,0-1.9-0.3-2.7-0.8c-0.8-0.5-1.4-1.3-1.7-2.2l-2.2-5.9l-2.3,9.7c-0.3,1.1-0.8,1.9-1.7,2.6
		c-0.8,0.7-1.8,1-2.9,1c-0.4,0-0.7,0-1.1-0.1c-1.3-0.3-2.2-1-2.9-2.1c-0.7-1.1-0.8-2.3-0.5-3.5l5.9-24.5c0.2-1,0.7-1.8,1.5-2.5
		c0.8-0.6,1.7-1,2.7-1.1c1-0.1,2,0.2,2.8,0.7c0.9,0.5,1.5,1.3,1.8,2.3l2.8,7.6l2.8-8.6c0.3-1,0.9-1.7,1.7-2.3
		c0.8-0.6,1.8-0.9,2.8-0.8c1,0,2,0.4,2.8,1c0.8,0.6,1.4,1.4,1.6,2.4L177.1,31.2z"/>
	<path class="st0" d="M195.8,26.7c1.3-0.1,2.4,0.3,3.4,1.1c1,0.8,1.5,1.9,1.6,3.2c0.1,0.8-0.1,1.6-0.4,2.4c-0.4,0.7-0.9,1.4-1.6,1.8
		c-0.7,0.5-1.4,0.8-2.3,0.8c-3.5,0.3-6.4,0.4-8.7,0.4c-3.1,0-5.3-0.3-6.5-0.9c-1.2-0.6-2.1-1.9-2.7-4c-0.6-2-1-4.3-1-6.7
		c-0.1-2.4,0-4.9,0.1-7.3c0.1-2.4,0.3-4.4,0.5-6c0.2-1.5,0.3-2.4,0.4-2.5c0.1-0.4,0.3-0.7,0.4-0.9c0.1-0.2,0.3-0.5,0.7-0.9
		c0.3-0.4,0.7-0.8,1.2-1c0.4-0.3,1.1-0.6,1.9-0.9c0.8-0.3,1.8-0.6,2.8-0.8c1.1-0.2,2.4-0.3,4-0.5c1.6-0.1,3.4-0.2,5.4-0.1
		c1.3,0,2.4,0.5,3.3,1.4c0.9,0.9,1.4,2,1.3,3.3c0,0.6-0.1,1.2-0.4,1.8c-0.2,0.6-0.6,1.1-1,1.5c-0.4,0.4-0.9,0.7-1.5,1
		c-0.6,0.2-1.2,0.4-1.8,0.4c-3,0-5.5,0.1-7.6,0.4c0,0.4-0.1,1-0.1,1.7h8.8c1.3,0,2.4,0.5,3.3,1.4c0.9,0.9,1.4,2,1.4,3.3
		s-0.5,2.4-1.4,3.3c-0.9,0.9-2,1.3-3.3,1.3h-8.9c0,0.9,0.1,1.6,0.2,2.1C189.5,27.1,192.4,27,195.8,26.7z"/>
</g>
</svg>
